<?xml version="1.0" encoding="UTF-8"?><svg id="Ebene_2" xmlns="http://www.w3.org/2000/svg" xmlns:xlink="http://www.w3.org/1999/xlink" viewBox="0 0 73.719 85.583"><defs><style>.cls-1{fill:url(#Unbenannter_Verlauf_2);}.cls-2{fill:#f7d747;stroke-width:.243px;}.cls-2,.cls-3,.cls-4,.cls-5{stroke:#f7d747;stroke-miterlimit:10;}.cls-3{stroke-width:.343px;}.cls-3,.cls-5{fill:#00001b;}.cls-4{fill:none;stroke-width:1.163px;}.cls-5{stroke-width:.976px;}</style><linearGradient id="Unbenannter_Verlauf_2" x1="36.727" y1="69.019" x2="36.892" y2="68.859" gradientUnits="userSpaceOnUse"><stop offset=".014" stop-color="#000017" stop-opacity=".3"/><stop offset=".212" stop-color="#554a27" stop-opacity=".262"/><stop offset=".501" stop-color="#f7d747" stop-opacity=".19"/><stop offset=".869" stop-color="#010117" stop-opacity=".292"/></linearGradient></defs><g id="Ebene_1-2"><g><polygon class="cls-1" points="36.909 68.934 36.809 69.104 36.809 68.774 36.909 68.934"/><g id="Port"><polygon id="Body" class="cls-3" points="73.547 62.566 73.547 20.987 36.859 .197 .172 20.987 .172 62.566 36.859 83.356 73.547 62.566"/><g id="Inner"><g id="Polygons"><polygon class="cls-2" points="30.784 6.806 9.203 19.102 6.954 18.861 4.507 18.601 32.695 2.534 31.716 4.735 31.706 4.735 30.784 6.806"/><polygon class="cls-2" points="66.783 18.861 64.515 19.102 42.925 6.806 42.003 4.726 41.993 4.726 41.024 2.534 69.212 18.601 66.783 18.861"/><polygon class="cls-2" points="1.806 55.566 .338 57.544 .338 25.411 1.806 27.389 3.133 29.181 3.133 53.783 1.806 55.566"/><polygon class="cls-2" points="73.381 25.706 73.381 57.839 71.913 55.861 70.586 54.078 70.586 29.476 71.913 27.684 73.381 25.706"/><polygon class="cls-2" points="69.212 64.953 41.024 81.011 41.993 78.838 42.925 76.748 64.515 64.452 66.774 64.693 69.212 64.953"/><polygon class="cls-2" points="31.742 78.827 32.721 81.019 4.533 64.961 6.971 64.701 9.229 64.46 30.81 76.756 31.732 78.827 31.742 78.827"/></g><g id="Stroke"><polyline class="cls-4" points="16.205 65.363 9.213 61.384 5.806 59.448 5.806 47.484"/><polyline class="cls-4" points="5.806 36.067 5.806 24.104 9.062 22.251 16.203 18.186"/><polyline class="cls-4" points="26.462 12.346 35.021 7.474 36.859 6.429 38.701 7.474 47.258 12.344"/><polyline class="cls-4" points="57.517 18.183 64.71 22.277 67.913 24.104 67.913 36.067"/><polyline class="cls-4" points="67.913 47.484 67.913 59.447 64.662 61.297 57.515 65.364"/><polyline class="cls-4" points="47.258 71.201 38.701 76.071 36.86 77.116 35.021 76.071 26.461 71.2"/></g></g></g><g id="DescBot"><polygon id="Root" class="cls-5" points="27.132 76.058 27.132 65.865 18.305 60.769 9.477 65.865 9.477 76.058 18.305 81.155 27.132 76.058"/><polygon id="Size" class="cls-5" points="64.241 76.058 64.241 65.865 55.414 60.769 46.586 65.865 46.586 76.058 55.414 81.155 64.241 76.058"/><polygon id="Contain_Port" class="cls-5" points="43.396 62.45 30.322 62.45 23.785 73.772 30.322 85.095 43.396 85.095 49.933 73.772 43.396 62.45"/></g></g></g></svg>